<?xml version="1.0" encoding="utf-8"?>
<!-- Generator: Adobe Illustrator 26.0.1, SVG Export Plug-In . SVG Version: 6.00 Build 0)  -->
<svg version="1.1" id="Livello_1" xmlns="http://www.w3.org/2000/svg" xmlns:xlink="http://www.w3.org/1999/xlink" x="0px" y="0px"
	 viewBox="0 0 90.4 135.3" style="enable-background:new 0 0 90.4 135.3;" xml:space="preserve">
<style type="text/css">
	.st0{display:none;opacity:0.7;}
	.st1{display:none;opacity:0.73;}
	.st2{opacity:0.63;}
	.st3{fill:#FD95B2;}
	.st4{fill:#CC3366;}
	.st5{opacity:0.83;fill:#CC3366;enable-background:new    ;}
</style>
<g transform="translate(128 128) scale(0.72 0.72)">
	<g transform="translate(-175.05 -175.05000000000004) scale(3.89 3.89)">
		<g class="st0">
			
				<image style="display:inline;overflow:visible;enable-background:new    ;" width="119" height="137" xlink:href="FF41F40E.png"  transform="matrix(0.357 0 0 0.357 -0.7494 10.1028)">
			</image>
		</g>
		<g class="st1">
			
				<image style="display:inline;overflow:visible;enable-background:new    ;" width="125" height="137" xlink:href="FF41F412.png"  transform="matrix(0.357 0 0 0.357 -3.6334 11.1739)">
			</image>
		</g>
		<g class="st2">
			
				<image style="overflow:visible;enable-background:new    ;" width="120" height="135" xlink:href="FF41F415.png"  transform="matrix(0.357 0 0 0.357 -2.2053 11.1739)">
			</image>
		</g>
	</g>
</g>
<g>
	<path class="st3" d="M36.4,129.8c-1.1,0-2.2-0.8-2.5-1.7c-2-5-3.9-10.4-5.9-15.4C17.6,86.1,7,59,3.9,48.3c-0.8-3.1-1.4-6.4-1.4-9.5
		C2.2,19.8,17.6,4.3,36.4,4.3s33.9,15.1,33.9,33.9c0,3.4-0.6,6.4-1.4,9.5c-3.1,10.6-13.7,38.1-24.1,64.4c-2,5.3-3.9,10.4-5.9,15.4
		C38.4,129,37.5,129.8,36.4,129.8z"/>
	<path class="st4" d="M36.4,133.5c-1.1,0-2.2-0.8-2.8-1.7c-2-5.3-4.2-10.9-6.2-16.2C16.5,87.3,5,58.4,1.9,47.2
		c-0.8-3.4-1.4-6.7-1.4-10.1c0-20.2,16-36.7,36.1-36.7s36.1,16,36.1,36.1c0,3.6-0.6,6.7-1.4,10.1c-3.4,11.2-14.6,40.3-25.5,68.3
		c-2,5.6-4.2,10.9-6.2,16.2C38.9,132.6,37.8,133.5,36.4,133.5z M36.4,6c-16.5,0-30,13.7-30,30c0,3.1,0.3,5.6,1.1,8.7
		c3.4,10.9,14.6,40.1,25.2,68.1c1.1,3.1,2.2,6.2,3.6,9.2c1.1-3.1,2.2-6.2,3.6-9.2c10.9-28,22.1-56.9,25.2-68.1
		c0.8-2.8,1.1-5.6,1.1-8.7C66.9,19.8,53.2,6,36.4,6z"/>
	<path class="st5" d="M36.7,51.7c-8.4,0-15.4-7-15.4-15.4s7-15.4,15.4-15.4s15.4,7,15.4,15.4S45.1,51.7,36.7,51.7z"/>
</g>
</svg>
