<?xml version="1.0" encoding="utf-8"?>
<!-- Generator: Adobe Illustrator 25.4.1, SVG Export Plug-In . SVG Version: 6.00 Build 0)  -->
<svg version="1.1" id="Layer_1" xmlns="http://www.w3.org/2000/svg" xmlns:xlink="http://www.w3.org/1999/xlink" x="0px" y="0px"
	 viewBox="0 0 87 122.9" style="enable-background:new 0 0 87 122.9;" xml:space="preserve">
<style type="text/css">
	.st0{fill-rule:evenodd;clip-rule:evenodd;fill:#1EA6CD;}
	.st1{opacity:0.83;fill-rule:evenodd;clip-rule:evenodd;fill:#006191;}
</style>
<g>
	<path class="st0" d="M27.8,96.6c4.4,7,9.2,15.6,13.9,23.9c1.8,3.1,3.3,3.5,5.4-0.1c4.6-7.9,9-16.1,13.8-23.7
		c14.3-23.2,37.8-45.8,19.1-77C63.5-8.1,18.5-5.2,5,20.6C-10.5,50.2,13.6,74,27.8,96.6L27.8,96.6z"/>
	<path class="st1" d="M43.5,25.6c9.3,0,16.9,7.5,16.9,16.9s-7.5,16.9-16.9,16.9s-16.9-7.5-16.9-16.9S34.2,25.6,43.5,25.6L43.5,25.6z
		"/>
</g>
</svg>
