<?xml version="1.0" encoding="utf-8"?>
<!-- Generator: Adobe Illustrator 25.4.1, SVG Export Plug-In . SVG Version: 6.00 Build 0)  -->
<svg version="1.1" id="Livello_1" xmlns="http://www.w3.org/2000/svg" xmlns:xlink="http://www.w3.org/1999/xlink" x="0px" y="0px"
	 viewBox="0 0 93.6 150" style="enable-background:new 0 0 93.6 150;" xml:space="preserve">
<style type="text/css">
	.st0{opacity:0.7;}
	.st1{fill:#1EA6CD;}
	.st2{fill:#006191;}
	.st3{opacity:0.83;fill:#006191;enable-background:new    ;}
</style>
<g transform="translate(128 128) scale(0.72 0.72)">
	<g transform="translate(-175.05 -175.05000000000004) scale(3.89 3.89)">
		<g class="st0">
			
				<image style="overflow:visible;enable-background:new    ;" width="119" height="137" xlink:href="31AE19F1.png"  transform="matrix(0.357 0 0 0.357 0.3976 15.3656)">
			</image>
		</g>
		<path class="st1" d="M13.5,50.8c-0.4,0-0.8-0.3-0.9-0.6c-0.7-1.8-1.4-3.7-2.1-5.5c-3.7-9.5-7.5-19.2-8.6-23
			c-0.3-1.1-0.5-2.3-0.5-3.4C1.3,11.5,6.8,6,13.5,6s12.1,5.4,12.1,12.1c0,1.2-0.2,2.3-0.5,3.4c-1.1,3.8-4.9,13.6-8.6,23
			c-0.7,1.9-1.4,3.7-2.1,5.5C14.2,50.5,13.9,50.8,13.5,50.8z"/>
		<path class="st2" d="M13.4,52.2c-0.4,0-0.8-0.3-1-0.6c-0.7-1.9-1.5-3.9-2.2-5.8c-3.9-10.1-8-20.4-9.1-24.4
			c-0.3-1.2-0.5-2.4-0.5-3.6c0-7.2,5.7-13.1,12.9-13.1s12.9,5.7,12.9,12.9c0,1.3-0.2,2.4-0.5,3.6c-1.2,4-5.2,14.4-9.1,24.4
			c-0.7,2-1.5,3.9-2.2,5.8C14.3,51.9,13.9,52.2,13.4,52.2z M13.4,6.7c-5.9,0-10.7,4.9-10.7,10.7c0,1.1,0.1,2,0.4,3.1
			c1.2,3.9,5.2,14.3,9,24.3c0.4,1.1,0.8,2.2,1.3,3.3c0.4-1.1,0.8-2.2,1.3-3.3c3.9-10,7.9-20.3,9-24.3c0.3-1,0.4-2,0.4-3.1
			C24.3,11.6,19.4,6.7,13.4,6.7z"/>
		<path class="st3" d="M13.5,23c-3,0-5.5-2.5-5.5-5.5s2.5-5.5,5.5-5.5s5.5,2.5,5.5,5.5S16.5,23,13.5,23z"/>
	</g>
</g>
</svg>
